<svg width="447" height="245" viewBox="0 0 447 245" fill="none" xmlns="http://www.w3.org/2000/svg">
<g clip-path="url(#clip0_0_269)">
<rect width="447" height="245" rx="10" fill="url(#paint0_linear_0_269)"/>
<mask id="mask0_0_269" style="mask-type:luminance" maskUnits="userSpaceOnUse" x="0" y="0" width="447" height="245">
<rect width="447" height="245" rx="10" fill="white"/>
</mask>
<g mask="url(#mask0_0_269)">
<g opacity="0.847405" filter="url(#filter0_f_0_269)">
<ellipse cx="272.655" cy="61.6554" rx="65.5" ry="181.5" transform="rotate(45 272.655 61.6554)" fill="#D53AFF"/>
</g>
<g opacity="0.847405" filter="url(#filter1_f_0_269)">
<ellipse cx="371.655" cy="56.6554" rx="65.5" ry="181.5" transform="rotate(45 371.655 56.6554)" fill="#FF834A"/>
</g>
<g opacity="0.847405" filter="url(#filter2_f_0_269)">
<ellipse cx="240.655" cy="213.655" rx="65.5" ry="181.5" transform="rotate(45 240.655 213.655)" fill="#47A2FF"/>
</g>
</g>
<ellipse cx="55.4783" cy="51.5" rx="23.4783" ry="23.5" fill="white"/>
<path d="M115.5 51.5C115.5 57.0647 110.993 61.575 105.435 61.575C99.8764 61.575 95.3696 57.0647 95.3696 51.5C95.3696 45.9353 99.8764 41.425 105.435 41.425C110.993 41.425 115.5 45.9353 115.5 51.5Z" stroke="white"/>
</g>
<defs>
<filter id="filter0_f_0_269" x="56.1768" y="-154.823" width="432.957" height="432.957" filterUnits="userSpaceOnUse" color-interpolation-filters="sRGB">
<feFlood flood-opacity="0" result="BackgroundImageFix"/>
<feBlend mode="normal" in="SourceGraphic" in2="BackgroundImageFix" result="shape"/>
<feGaussianBlur stdDeviation="40" result="effect1_foregroundBlur_0_269"/>
</filter>
<filter id="filter1_f_0_269" x="155.177" y="-159.823" width="432.957" height="432.957" filterUnits="userSpaceOnUse" color-interpolation-filters="sRGB">
<feFlood flood-opacity="0" result="BackgroundImageFix"/>
<feBlend mode="normal" in="SourceGraphic" in2="BackgroundImageFix" result="shape"/>
<feGaussianBlur stdDeviation="40" result="effect1_foregroundBlur_0_269"/>
</filter>
<filter id="filter2_f_0_269" x="24.1768" y="-2.82317" width="432.957" height="432.957" filterUnits="userSpaceOnUse" color-interpolation-filters="sRGB">
<feFlood flood-opacity="0" result="BackgroundImageFix"/>
<feBlend mode="normal" in="SourceGraphic" in2="BackgroundImageFix" result="shape"/>
<feGaussianBlur stdDeviation="40" result="effect1_foregroundBlur_0_269"/>
</filter>
<linearGradient id="paint0_linear_0_269" x1="-128.592" y1="35.2406" x2="-87.7792" y2="294.081" gradientUnits="userSpaceOnUse">
<stop stop-color="#6348FE"/>
<stop offset="1" stop-color="#610595"/>
</linearGradient>
<clipPath id="clip0_0_269">
<rect width="447" height="245" fill="white"/>
</clipPath>
</defs>
</svg>
