<svg id="visual" viewBox="0 0 960 540" width="960" height="540" xmlns="http://www.w3.org/2000/svg" xmlns:xlink="http://www.w3.org/1999/xlink" version="1.1"><rect x="0" y="0" width="960" height="540" fill="#6f98cf"></rect><path d="M0 436L96 387L192 376L288 377L384 454L480 374L576 419L672 385L768 452L864 462L960 456L960 541L864 541L768 541L672 541L576 541L480 541L384 541L288 541L192 541L96 541L0 541Z" fill="#89685c"></path><path d="M0 410L96 437L192 454L288 425L384 481L480 424L576 427L672 409L768 415L864 476L960 422L960 541L864 541L768 541L672 541L576 541L480 541L384 541L288 541L192 541L96 541L0 541Z" fill="#b07b60"></path><path d="M0 473L96 450L192 464L288 455L384 499L480 486L576 459L672 479L768 471L864 496L960 471L960 541L864 541L768 541L672 541L576 541L480 541L384 541L288 541L192 541L96 541L0 541Z" fill="#d49061"></path><path d="M0 483L96 476L192 477L288 501L384 495L480 501L576 487L672 493L768 482L864 490L960 505L960 541L864 541L768 541L672 541L576 541L480 541L384 541L288 541L192 541L96 541L0 541Z" fill="#f5a85f"></path></svg>