<svg id="visual" viewBox="0 0 960 540" width="960" height="540" xmlns="http://www.w3.org/2000/svg" xmlns:xlink="http://www.w3.org/1999/xlink" version="1.1"><rect x="0" y="0" width="960" height="540" fill="#243448"></rect><path d="M0 373L137 371L274 351L411 380L549 325L686 374L823 345L960 344L960 541L823 541L686 541L549 541L411 541L274 541L137 541L0 541Z" fill="#3d1904"></path><path d="M0 397L137 396L274 411L411 408L549 422L686 418L823 355L960 367L960 541L823 541L686 541L549 541L411 541L274 541L137 541L0 541Z" fill="#391304"></path><path d="M0 405L137 396L274 441L411 457L549 432L686 435L823 418L960 457L960 541L823 541L686 541L549 541L411 541L274 541L137 541L0 541Z" fill="#340e04"></path><path d="M0 486L137 454L274 475L411 465L549 444L686 485L823 462L960 476L960 541L823 541L686 541L549 541L411 541L274 541L137 541L0 541Z" fill="#2f0904"></path><path d="M0 506L137 487L274 491L411 507L549 498L686 509L823 473L960 475L960 541L823 541L686 541L549 541L411 541L274 541L137 541L0 541Z" fill="#2a0303"></path></svg>